<?xml version="1.0" standalone="no"?>
<!DOCTYPE svg PUBLIC "-//W3C//DTD SVG 20010904//EN"
 "http://www.w3.org/TR/2001/REC-SVG-20010904/DTD/svg10.dtd">
<svg version="1.0" xmlns="http://www.w3.org/2000/svg"
 width="500.000000pt" height="500.000000pt" viewBox="0 0 500.000000 500.000000"
 preserveAspectRatio="xMidYMid meet">

<g transform="translate(0.000000,500.000000) scale(0.100000,-0.100000)"
fill="#000000" stroke="none">
<path d="M1203 4394 c-35 -31 -63 -61 -63 -67 0 -6 126 -134 279 -284 299
-292 313 -311 291 -377 -18 -56 -53 -81 -116 -81 l-54 0 -202 200 c-112 110
-242 238 -291 285 l-87 85 -58 -58 -57 -58 287 -284 c249 -246 288 -289 294
-321 10 -52 -18 -103 -69 -128 -72 -35 -84 -26 -400 284 l-283 279 -57 -57
-57 -57 286 -286 c264 -264 286 -289 291 -326 12 -92 -88 -164 -170 -122 -12
6 -147 135 -299 287 l-278 277 -67 -68 -68 -68 392 -390 392 -390 -24 -94
c-38 -150 -48 -252 -42 -444 6 -192 23 -294 78 -454 40 -119 124 -282 198
-388 l59 -84 -186 -187 -187 -188 135 -135 135 -135 185 185 c102 102 188 185
191 185 3 0 44 -25 89 -56 545 -365 1270 -364 1804 2 l78 54 199 -191 c177
-170 201 -190 217 -178 9 7 68 62 130 123 l112 111 -196 196 -197 197 45 58
c304 403 394 954 233 1441 -38 114 -134 306 -200 398 l-57 80 455 452 455 452
-45 41 c-57 53 -153 98 -236 111 -245 38 -606 -144 -1060 -534 l-98 -84 -102
43 c-217 92 -395 127 -637 127 -176 0 -298 -16 -444 -58 l-80 -23 -384 379
c-212 208 -388 379 -391 379 -3 0 -34 -25 -68 -56z m1669 -840 c47 -26 63 -29
144 -30 l91 -1 38 -42 c48 -53 122 -91 190 -98 49 -5 53 -8 69 -44 25 -55 107
-125 172 -146 42 -13 54 -21 54 -37 0 -60 99 -192 157 -210 16 -5 21 -18 26
-64 6 -74 44 -149 97 -195 l41 -34 -11 -49 c-17 -74 -1 -151 47 -225 l24 -37
-22 -63 c-26 -77 -21 -148 15 -220 l24 -47 -20 -19 c-59 -53 -97 -170 -80
-250 l10 -47 -48 -45 c-55 -52 -85 -112 -96 -189 -6 -48 -10 -55 -43 -72 -69
-35 -150 -144 -151 -202 0 -11 -16 -21 -52 -32 -29 -8 -71 -29 -94 -45 -38
-28 -94 -99 -94 -119 0 -5 -26 -12 -57 -16 -79 -9 -135 -37 -191 -94 -46 -47
-48 -48 -87 -40 -79 18 -175 -6 -245 -62 l-39 -31 -43 23 c-62 33 -194 33
-256 0 l-42 -23 -23 22 c-58 55 -164 85 -246 69 l-48 -9 -55 53 c-59 57 -123
86 -192 86 -39 0 -43 3 -68 50 -33 60 -104 114 -171 132 -38 9 -49 17 -54 37
-19 79 -89 168 -162 206 -27 14 -31 21 -31 58 0 60 -39 135 -97 187 -47 43
-49 46 -40 80 21 79 -10 190 -72 258 l-30 32 27 52 c36 70 38 180 3 246 l-22
44 26 34 c52 68 67 119 63 208 l-3 82 36 31 c51 45 90 123 96 192 5 54 8 60
38 74 75 36 155 141 155 203 0 17 8 24 33 29 57 12 129 59 169 108 21 27 38
55 38 62 0 8 21 15 56 19 72 8 140 43 190 98 l40 44 76 -4 c94 -5 158 14 217
65 l42 36 42 -24 c36 -21 55 -24 138 -24 89 0 99 2 145 30 l49 31 27 -31 c14
-17 51 -44 80 -61z"/>
<path d="M2350 3495 c-491 -83 -898 -428 -1049 -888 -253 -771 225 -1571 1029
-1722 64 -12 143 -18 240 -18 230 0 404 41 607 143 366 184 614 505 704 911
30 134 33 376 6 511 -111 555 -542 971 -1102 1063 -108 18 -330 18 -435 0z
m430 -60 c251 -41 487 -159 675 -337 47 -44 85 -84 85 -89 0 -5 -10 -9 -23 -9
-35 0 -110 -52 -131 -92 -28 -52 -16 -80 55 -133 74 -55 116 -60 154 -19 28
30 50 98 39 117 -6 9 -5 9 7 0 26 -21 106 -184 138 -278 36 -110 57 -213 66
-326 l7 -85 -36 4 c-29 3 -41 -1 -66 -26 -16 -17 -30 -39 -30 -50 0 -25 54
-71 92 -79 20 -4 27 -10 24 -22 -3 -9 -8 -36 -11 -61 -20 -128 -102 -327 -193
-465 -57 -86 -204 -240 -291 -304 -60 -45 -183 -121 -194 -121 -2 0 -3 19 0
42 5 53 -29 118 -68 132 -56 19 -159 -59 -159 -121 0 -20 72 -93 92 -93 4 0 8
-4 8 -9 0 -10 -119 -46 -225 -67 -88 -18 -338 -22 -415 -7 l-45 9 3 40 c2 29
-2 47 -17 65 l-20 24 -38 -20 c-32 -17 -38 -25 -38 -53 0 -17 0 -32 -1 -32
-15 0 -172 62 -233 92 -63 31 -204 121 -239 153 -7 6 80 172 114 218 21 28 50
55 71 63 32 14 37 14 55 -2 16 -15 22 -16 36 -6 9 7 24 15 33 18 32 11 40 49
18 90 -10 21 -19 44 -19 51 0 8 -12 18 -27 24 -16 6 -36 18 -46 27 -15 13 -21
14 -39 3 -18 -11 -24 -9 -52 18 -17 16 -40 30 -51 29 -11 0 -34 6 -51 13 -26
10 -34 10 -53 -3 -18 -12 -29 -14 -56 -6 -30 10 -37 8 -74 -23 -49 -39 -60
-69 -37 -104 9 -14 14 -29 12 -34 -8 -13 43 -44 63 -38 9 3 23 8 32 12 13 5
20 -2 29 -29 14 -42 2 -111 -31 -185 l-21 -46 -49 54 c-97 105 -189 259 -244
411 -94 261 -93 576 1 842 106 297 344 563 632 707 89 45 254 98 353 115 114
19 313 19 429 1z m-1030 -1735 c0 -5 -4 -10 -10 -10 -5 0 -10 5 -10 10 0 6 5
10 10 10 6 0 10 -4 10 -10z m70 -20 c0 -5 -4 -10 -10 -10 -5 0 -10 5 -10 10 0
6 5 10 10 10 6 0 10 -4 10 -10z m-150 -21 c0 -24 -23 -21 -28 4 -2 10 3 17 12
17 10 0 16 -9 16 -21z m230 1 c0 -5 -4 -10 -10 -10 -5 0 -10 5 -10 10 0 6 5
10 10 10 6 0 10 -4 10 -10z m80 -21 c0 -5 -4 -9 -10 -9 -5 0 -10 7 -10 16 0 8
5 12 10 9 6 -3 10 -10 10 -16z m-260 1 c0 -5 -4 -10 -10 -10 -5 0 -10 5 -10
10 0 6 5 10 10 10 6 0 10 -4 10 -10z m313 -16 c9 -10 -4 -34 -19 -34 -8 0 -14
6 -14 13 0 22 19 35 33 21z m-107 -51 c-10 -10 -19 5 -10 18 6 11 8 11 12 0 2
-7 1 -15 -2 -18z m-137 -47 c-1 -65 -17 -92 -18 -31 -1 28 -4 61 -8 75 -6 22
-5 24 10 11 11 -9 17 -28 16 -55z m99 26 c2 -6 -13 -28 -33 -49 l-35 -38 6 30
c13 56 23 73 40 71 10 -2 20 -8 22 -14z m-123 -262 c-9 -18 -19 -30 -22 -27
-3 3 3 19 13 36 23 39 30 32 9 -9z"/>
<path d="M2332 3283 c-18 -9 -39 -28 -47 -43 -13 -25 -13 -30 6 -54 20 -26 68
-56 89 -56 5 0 19 9 30 20 29 29 27 94 -5 125 -28 29 -30 29 -73 8z"/>
<path d="M2749 3251 c-53 -21 -115 -65 -130 -94 -9 -15 -7 -22 10 -34 12 -8
21 -23 21 -33 0 -26 -38 -51 -67 -44 -22 6 -23 5 -23 -67 0 -122 59 -217 166
-270 66 -33 187 -34 255 -3 171 79 224 305 107 458 -15 19 -15 19 -36 -2 -27
-27 -37 -27 -62 -2 -24 24 -24 29 -5 57 14 20 13 22 -32 37 -61 21 -146 20
-204 -3z m113 -68 c50 -45 -6 -133 -65 -102 -28 15 -37 28 -37 58 0 53 62 80
102 44z m26 -175 c7 -7 12 -21 12 -33 0 -12 -5 -26 -12 -33 -7 -7 -21 -12 -33
-12 -12 0 -26 5 -33 12 -7 7 -12 21 -12 33 0 12 5 26 12 33 7 7 21 12 33 12
12 0 26 -5 33 -12z m190 -55 c31 -28 35 -56 11 -86 -35 -46 -109 -24 -109 32
0 58 57 89 98 54z"/>
<path d="M1965 3060 c-90 -46 -154 -136 -155 -217 0 -86 53 -163 112 -163 37
0 48 19 49 80 l0 55 29 -35 c16 -19 45 -55 63 -80 45 -62 66 -62 128 -2 48 45
51 50 39 73 -7 13 -43 52 -79 86 l-66 62 61 -6 c49 -4 63 -2 77 12 28 27 2 86
-56 129 -41 30 -148 33 -202 6z m137 -10 c21 -6 40 -15 43 -20 4 -6 -6 -5 -22
1 -76 29 -206 -38 -254 -132 -10 -21 -19 -60 -20 -86 0 -43 -1 -45 -10 -23
-36 88 54 225 172 258 45 13 48 14 91 2z m-39 -296 c18 -26 43 -54 57 -61 26
-13 15 -18 -15 -7 -14 6 -73 85 -100 134 -17 32 26 -17 58 -66z"/>
<path d="M3220 2695 c-27 -29 -23 -45 22 -78 32 -24 66 -15 74 20 18 71 -47
110 -96 58z"/>
<path d="M1542 2657 c-29 -31 -28 -51 5 -77 34 -26 63 -23 82 11 12 22 12 29
0 55 -19 38 -57 43 -87 11z"/>
<path d="M1613 2433 l-23 -4 0 -245 0 -244 65 0 65 0 0 83 0 82 56 2 c66 2
138 35 168 75 12 18 21 49 24 85 3 48 0 64 -20 92 -41 62 -78 76 -203 78 -60
1 -120 -1 -132 -4z m202 -118 c14 -13 25 -31 25 -40 0 -29 -46 -65 -85 -65
l-35 0 0 65 0 65 35 0 c25 0 44 -8 60 -25z"/>
<path d="M2040 2190 l0 -250 65 0 65 0 0 250 0 250 -65 0 -65 0 0 -250z"/>
<path d="M2260 2385 l0 -55 95 0 c59 0 95 -4 95 -10 0 -6 -47 -77 -105 -158
-88 -123 -105 -153 -105 -184 l0 -38 200 0 200 0 0 55 0 54 -109 3 -109 3 109
155 c95 134 109 160 107 190 l-3 35 -187 3 -188 2 0 -55z"/>
<path d="M2700 2385 l0 -54 101 -3 101 -3 -111 -156 c-92 -130 -111 -163 -111
-193 l0 -36 200 0 200 0 0 55 0 55 -110 0 -109 0 109 157 c94 133 110 162 110
195 l0 38 -190 0 -190 0 0 -55z"/>
<path d="M3251 2373 c-11 -38 -45 -150 -74 -250 l-54 -183 72 0 72 0 12 55 13
56 66 -3 65 -3 15 -52 15 -53 74 0 c56 0 74 3 70 13 -2 6 -23 75 -46 152 -23
77 -56 184 -72 238 l-30 97 -89 0 -89 0 -20 -67z m128 -130 c12 -45 21 -84 21
-87 0 -3 -21 -6 -46 -6 -33 0 -45 4 -41 13 2 7 12 47 22 90 9 43 19 77 20 75
2 -2 13 -40 24 -85z"/>
<path d="M1446 1889 c-32 -25 -33 -49 -3 -76 35 -32 55 -35 78 -12 16 16 20
29 15 52 -12 60 -43 73 -90 36z"/>
<path d="M3192 1798 c-20 -20 -13 -61 19 -98 39 -45 25 -48 -76 -15 -43 14
-83 25 -89 25 -25 -1 -38 -20 -51 -81 -18 -89 -8 -98 114 -108 50 -5 94 -10
96 -13 3 -3 -15 -16 -40 -29 -73 -38 -74 -90 -2 -118 82 -31 186 18 231 108
82 161 2 341 -152 341 -21 0 -43 -5 -50 -12z m182 -81 c25 -34 33 -131 16
-191 -15 -55 -63 -114 -106 -132 -45 -19 -66 -17 -29 3 47 24 76 55 96 98 40
91 33 184 -19 247 -27 33 -27 33 -2 17 13 -9 33 -28 44 -42z m-218 -59 c40
-13 74 -26 74 -30 0 -4 -6 -6 -12 -3 -7 2 -44 13 -81 25 -41 13 -79 19 -95 16
-20 -5 -23 -4 -12 4 22 14 44 12 126 -12z"/>
<path d="M3569 1797 c-9 -7 -21 -21 -27 -33 -9 -18 -7 -25 16 -48 46 -43 92
-30 92 27 0 59 -40 86 -81 54z"/>
<path d="M2417 1706 c-60 -22 -113 -62 -145 -108 -40 -60 -52 -100 -52 -180 0
-68 0 -68 25 -62 18 4 32 1 45 -11 26 -24 25 -50 -2 -69 l-22 -16 34 -36 c59
-60 123 -88 210 -88 42 -1 89 5 108 13 36 15 36 15 21 42 -8 16 -7 26 6 45 19
29 49 31 68 4 14 -20 14 -20 34 3 39 42 56 91 61 168 4 66 1 84 -20 130 -34
73 -66 110 -129 144 -64 34 -179 45 -242 21z m319 -154 c24 -16 35 -51 23 -74
-15 -29 -28 -38 -58 -38 -53 0 -80 62 -44 102 16 18 59 24 79 10z m-188 -94
c36 -36 -11 -93 -57 -69 -39 21 -21 81 24 81 12 0 26 -5 33 -12z m-30 -144
c34 -23 27 -83 -10 -104 -25 -13 -31 -13 -55 0 -38 21 -45 81 -11 104 12 9 29
16 38 16 9 0 26 -7 38 -16z"/>
</g>
</svg>
